<svg xmlns="http://www.w3.org/2000/svg" viewBox="0 0 464.4 416.1"><path d="M461.3 29.1c-6-16.5-21.9-27.6-39.4-27.6H42.8c-17.3 0-33 10.9-39.2 27.1C1.8 33.4.8 38.4.8 43.5V183l1.6 27.8C9.2 273.9 42 329.1 92.7 367.6c.9.7 1.8 1.4 2.8 2l.6.4c27.2 19.9 57.6 33.3 90.5 40 15.2 3.1 30.7 4.6 46 4.6 14.2 0 28.5-1.3 42.6-3.9 1.7-.3 3.4-.6 5.1-1 .5-.1 1-.3 1.5-.5 31.4-6.9 60.6-20 86.8-39.1l.6-.4c.9-.7 1.8-1.4 2.8-2 50.7-38.5 83.5-93.7 90.2-156.8l1.6-27.8V43.4c-.3-4.8-.8-9.6-2.5-14.3zm-98 145.4L254.5 278.9c-6.1 5.9-14.1 8.8-22 8.8s-15.8-2.9-22-8.8L101.7 174.5c-12.6-12.1-13.1-32.2-.9-44.8 12.1-12.7 32.2-13.1 44.8-.9l86.9 83.3 86.9-83.3c12.6-12.1 32.7-11.7 44.8.9 12.1 12.6 11.7 32.7-.9 44.8z"/></svg>